<svg width="179" height="47" viewBox="0 0 179 47" fill="none" xmlns="http://www.w3.org/2000/svg">
<path d="M113.949 9.37137L103.699 13.1839V18.5229L121.255 11.4412V7.08174L103.699 0V5.339L113.949 9.37137Z" fill="black"/>
<path fill-rule="evenodd" clip-rule="evenodd" d="M0 40.9692C0 45.1106 3.0532 46.9624 6.76062 46.9624C9.4867 46.9624 11.3403 45.654 12.4307 44.1294V46.5263H17.9919V32.7972C17.9919 27.6762 14.3935 25.6064 9.4867 25.6064C4.68876 25.6064 1.09041 27.7853 0.654225 32.3611H6.10639C6.21536 30.8364 7.1968 29.7461 9.15948 29.7461C11.3403 29.7461 12.2127 30.9454 12.2127 33.0152V33.9965H9.70474C4.36165 33.9965 0 35.7393 0 40.7512V40.9692ZM12.2127 37.7001V39.6626C12.2127 41.8415 10.468 42.93 8.50525 42.93C6.54258 42.93 5.6702 41.9505 5.6702 40.5331V40.315C5.6702 38.4633 7.08773 37.7001 9.92278 37.7001H12.2127Z" fill="black"/>
<path d="M21.1541 36.5025C21.1541 43.4752 25.2977 46.9624 30.9678 46.9624C36.529 46.9624 39.6912 43.5842 40.0183 38.8994H34.7843C34.4572 41.1873 33.0397 42.6047 31.0769 42.6047C28.4599 42.6047 26.9334 40.7512 26.9334 36.6115V35.9573C26.9334 31.9249 28.678 29.9641 31.0769 29.9641C33.0397 29.9641 34.1301 31.2725 34.4572 33.2333H39.9094C39.4732 27.8943 35.6567 25.4974 30.9678 25.4974C25.5158 25.4974 21.1541 29.2009 21.1541 36.1754V36.5025Z" fill="black"/>
<path d="M42.5263 36.5025C42.5263 43.4752 46.6699 46.9624 52.3401 46.9624C57.9012 46.9624 61.0635 43.5842 61.3906 38.8994H56.1566C55.8294 41.1873 54.4118 42.6047 52.4491 42.6047C49.8321 42.6047 48.3055 40.7512 48.3055 36.6115V35.9573C48.3055 31.9249 50.0502 29.9641 52.4491 29.9641C54.4118 29.9641 55.5023 31.2725 55.8295 33.2333H61.2815C60.8453 27.8943 57.0288 25.4974 52.3401 25.4974C46.888 25.4974 42.5263 29.2009 42.5263 36.1754V36.5025Z" fill="black"/>
<path fill-rule="evenodd" clip-rule="evenodd" d="M63.8985 36.6115C63.8985 43.4752 67.933 46.9624 73.8213 46.9624C79.2735 46.9624 82.4356 44.0203 83.1989 40.206H77.8558C77.4196 41.6234 76.2203 42.821 74.0393 42.821C71.6405 42.821 70.0048 41.4053 69.7868 37.7001H83.0898V35.1941C83.0898 28.3304 78.8373 25.4974 73.7123 25.4974C68.1511 25.4974 63.8985 29.31 63.8985 36.1754V36.6115ZM77.5287 33.8875H69.7868C70.2229 30.6183 71.8585 29.6371 73.7123 29.528C76.0021 29.528 77.4196 30.8364 77.5287 33.8875Z" fill="black"/>
<path d="M92.3584 26.0425H86.5792V46.5263H92.3584V33.9965C92.3584 31.3815 93.9941 30.1822 95.9568 30.1822C98.0286 30.1822 99.0099 31.2725 99.0099 33.6694V46.5263H104.789V32.7972C104.789 27.8943 102.281 25.6064 98.5737 25.6064C95.4116 25.6064 93.3398 27.1311 92.3584 29.0919V26.0425Z" fill="black"/>
<path d="M115.366 26.0425V19.8313L109.587 22.2282V26.0425H107.188V30.2912H109.587V40.6421C109.587 44.7835 111.659 46.8534 116.13 46.8534C117.547 46.8534 118.747 46.6353 119.401 46.4172V41.9505C119.112 42.0664 118.823 42.1512 118.486 42.2049C118.187 42.2533 117.848 42.2776 117.438 42.2776C116.021 42.2776 115.366 41.5144 115.366 39.9897V30.2912H119.292V26.0425H115.366Z" fill="black"/>
<path d="M135.103 46.5263H140.773V26.1516H134.994V38.7904C134.994 41.2963 133.358 42.6047 131.395 42.6047C129.433 42.6047 128.451 41.5144 128.451 39.1174V26.0425H122.672V39.8807C122.672 44.6745 125.398 46.9624 129.105 46.9624C132.159 46.9624 134.121 45.4377 135.103 43.4752V46.5263Z" fill="black"/>
<path d="M150.914 26.0425H145.135V46.6353H150.914V36.0663C150.914 32.6882 153.204 31.4906 157.129 31.4906V25.8245C154.076 25.8245 152.113 27.1311 150.914 29.8551V26.0425Z" fill="black"/>
<path fill-rule="evenodd" clip-rule="evenodd" d="M158.874 36.6115C158.874 43.4752 162.908 46.9624 168.797 46.9624C174.14 46.9624 177.302 44.0203 178.174 40.206H172.831C172.395 41.6234 171.196 42.821 169.015 42.821C166.616 42.821 164.98 41.4053 164.762 37.7001H178.065V35.1941C178.065 28.3304 173.813 25.4974 168.688 25.4974C163.127 25.4974 158.874 29.31 158.874 36.1754V36.6115ZM172.395 33.8875H164.653C165.198 30.6183 166.834 29.6371 168.579 29.528C170.869 29.528 172.286 30.8364 172.395 33.8875Z" fill="black"/>
<path d="M103.713 13.1843L113.963 9.3707L103.713 5.33911V0L121.269 7.0825V11.441L103.713 18.5235V13.1843Z" fill="#A001FC"/>
</svg>
