<svg width="1316" height="48" viewBox="0 0 1316 48" fill="none" xmlns="http://www.w3.org/2000/svg">
<g clip-path="url(#clip0_430:17)">
<path d="M49.128 29.6386C34.8032 30.1258 5.65318 30.8758 3.65182 29.978C1.15012 28.8557 2.12369 27.1248 1.93435 26.4487C1.74502 25.7726 4.16549 24.001 5.42307 23.2843C6.42913 22.7109 7.7444 22.0266 8.27628 21.7562C8.66395 21.4047 9.76924 20.3178 11.089 18.7816C12.4087 17.2454 16.5971 16.753 18.5263 16.6989C27.5434 16.4555 39.6804 16.1259 51.8131 15.7929M49.128 29.6386L46.4911 26.7314L69.4523 25.4055L71.0751 28.5967M49.128 29.6386L68.4386 43.9178L76.4034 42.4166L71.0751 28.5967M71.0751 28.5967L95.8753 26.0267C99.0756 25.7382 105.885 24.5363 107.518 22.0373C109.152 19.5382 115.041 9.84452 117.781 5.31003C115.902 5.10724 111.872 4.77741 110.79 5.08035C109.438 5.45902 109.343 5.12096 108.518 6.08108C107.859 6.84918 104.944 10.2416 103.569 11.8418C102.826 12.6577 100.981 14.3165 99.5532 14.4247C98.8762 14.476 86.5641 14.8297 70.987 15.2634M51.8131 15.7929L67.1122 2.72828L74.8742 3.10668L70.987 15.2634M51.8131 15.7929C58.37 15.613 64.9257 15.4321 70.987 15.2634" stroke="#B942FF" stroke-width="3.61672"/>
</g>
<defs>
<clipPath id="clip0_430:17">
<rect width="1316" height="47.007" fill="white"/>
</clipPath>
</defs>
</svg>
