<svg width="136" height="95" viewBox="0 0 136 95" fill="none" xmlns="http://www.w3.org/2000/svg">
<path d="M119.599 40.6345C119.409 41.6959 119.164 42.7301 118.865 43.7099C118.838 43.7643 118.838 43.7915 118.811 43.8459C118.485 44.9346 118.132 45.9687 117.724 46.9485C125.06 50.5954 129.217 54.8682 129.217 58.9505C129.217 63.5771 123.892 68.4759 114.6 72.3949C113.187 72.9937 112.399 74.4905 112.644 75.9329C112.698 76.1779 112.752 76.4228 112.861 76.6678C113.567 78.3279 115.497 79.0899 117.154 78.3823C122.778 76.0146 127.206 73.2658 130.358 70.2449C133.944 66.7613 135.792 62.9784 135.765 58.9777C135.792 51.9834 130.086 45.5605 119.599 40.6345Z" fill="#383838"/>
<path d="M21.0021 79.3599C32.7935 83.8232 48.1441 86.4087 64.5543 86.7081V94.8183L84.3606 83.4966L80.6112 81.3466L64.5543 72.175V80.2036C48.932 79.9042 34.4236 77.482 23.3658 73.2908C12.8242 69.2901 6.5209 63.9287 6.5209 58.9754C6.5209 54.8659 10.8136 50.4842 18.258 46.8373C18.095 46.0208 18.0135 45.1771 18.0135 44.3062C18.0135 43.9796 18.0406 43.6531 18.0678 43.3265C18.2036 41.8296 18.6927 40.4144 19.4806 39.1897C6.90126 44.3062 0.000294317 51.2734 0.000294317 58.9754C-0.054044 66.9768 7.41748 74.2161 21.0021 79.3599Z" fill="#383838"/>
<path d="M24.9695 48.009C25.7302 49.1521 26.7355 50.159 28.0124 51.0027C29.2622 51.8736 30.7022 52.554 32.3051 53.0711C33.9081 53.5882 35.5111 53.8331 37.1412 53.8331C39.0702 53.8331 40.8634 53.5065 42.5751 52.8261C44.2867 52.1458 45.781 51.2204 47.058 50.0502C48.036 49.1521 48.8511 48.1451 49.5032 47.0293C49.7205 46.6755 49.9107 46.2944 50.1009 45.9134C50.8345 44.3349 51.2148 42.6204 51.2148 40.7697C51.2148 39.9805 51.1605 39.2456 51.0518 38.538C50.8616 37.3678 50.5356 36.3336 50.0194 35.381C49.8564 35.0544 49.6662 34.7551 49.4488 34.4829C49.2858 34.238 49.1228 34.0203 48.9326 33.8025C48.5251 33.2854 48.0904 32.8228 47.6285 32.4146C46.8949 31.7342 46.107 31.1899 45.2648 30.7272C46.4602 30.0196 47.4111 28.9582 48.1175 27.5974C48.8239 26.2366 49.1771 24.4676 49.1771 22.3176C49.1771 21.0113 48.8783 19.7321 48.2534 18.5074C47.6285 17.2555 46.7863 16.1669 45.7267 15.2144C44.6671 14.2618 43.3901 13.4998 41.923 12.9555C40.4559 12.384 38.8529 12.1118 37.1684 12.1118C35.6741 12.1118 34.2341 12.3295 32.8485 12.8194C31.4629 13.2821 30.2403 13.908 29.1535 14.6701C28.0668 15.4593 27.1974 16.3574 26.5453 17.4188C25.8932 18.4802 25.5672 19.5961 25.5672 20.7663C25.5672 22.0182 25.9747 22.9708 26.817 23.5423C27.6592 24.141 28.5558 24.4404 29.5339 24.4404C30.3761 24.4404 31.0825 24.1955 31.6259 23.7056C32.1693 23.2157 32.6583 22.6714 33.1474 22.0455C33.6364 21.4195 34.1798 20.8752 34.8047 20.3853C35.4296 19.8954 36.2175 19.6505 37.1956 19.6505C38.391 19.6505 39.3963 20.0315 40.2385 20.7663C41.0808 21.5012 41.4883 22.4265 41.4883 23.5151C41.4883 24.6582 41.3253 25.529 40.9721 26.1278C40.6189 26.7265 40.2113 27.1892 39.6951 27.4886C39.1789 27.7879 38.6355 28.0057 38.0378 28.1417C37.4401 28.2778 36.8967 28.4683 36.3805 28.7132C35.8643 28.9582 35.4296 29.2848 35.1036 29.7202C34.7504 30.1557 34.5873 30.8361 34.5873 31.7886C34.5873 32.6323 34.8047 33.2855 35.2666 33.7209C35.5111 33.9658 35.7828 34.1563 36.0816 34.3469C36.3533 34.5101 36.625 34.6462 36.9239 34.7279C37.5759 34.9728 38.3095 35.1633 39.0702 35.3538C39.831 35.5443 40.5374 35.8165 41.2166 36.1703C41.4068 36.2792 41.6241 36.4152 41.7872 36.5513C42.1947 36.8507 42.5479 37.2589 42.8739 37.7216C43.1999 38.2114 43.3901 38.8102 43.4988 39.545C43.526 39.8444 43.5531 40.171 43.5531 40.4975C43.5531 41.3412 43.3901 42.1033 43.0369 42.8109C42.6837 43.5185 42.249 44.1172 41.6513 44.6343C41.0808 45.1514 40.4015 45.5868 39.6408 45.859C38.8801 46.1584 38.065 46.2944 37.2227 46.2944C35.7013 46.2944 34.533 45.9951 33.7723 45.3963C33.0115 44.7976 32.3595 44.1716 31.8161 43.464C31.4901 43.0286 31.1369 42.6204 30.7837 42.2393C30.5663 41.9944 30.349 41.7767 30.1044 41.5317C29.5067 40.933 28.6373 40.6336 27.4962 40.6336C26.5996 40.6336 25.7846 40.9602 25.0238 41.6406C24.2903 42.321 23.9099 43.1919 23.9099 44.3077C23.9099 44.3621 23.9099 44.3894 23.9099 44.4438C23.8556 45.7229 24.2359 46.9204 24.9695 48.009Z" fill="#383838"/>
<path d="M61.783 37.7748C61.8374 37.5843 61.9189 37.3938 62.0004 37.1761C62.3536 36.3868 62.8154 35.6792 63.4132 35.0533C63.6305 34.8356 63.8479 34.6178 64.0924 34.4545C64.5271 34.128 65.0161 33.8286 65.5324 33.6109C66.3474 33.2571 67.2169 33.0666 68.1678 33.0666C69.0644 33.0666 69.9338 33.2571 70.7489 33.6109C71.2651 33.8558 71.7541 34.128 72.216 34.4818C72.4605 34.6723 72.6779 34.8628 72.8952 35.0805C73.5201 35.6792 74.0091 36.3868 74.3352 37.2033C74.4167 37.3938 74.4982 37.6115 74.5525 37.802C74.7427 38.428 74.8514 39.054 74.8514 39.7343C74.8514 40.6597 74.6884 41.5306 74.3352 42.3198C73.982 43.1091 73.5201 43.8167 72.8952 44.4154C72.2703 45.0141 71.5639 45.4768 70.7489 45.8034C69.9338 46.13 69.0644 46.3205 68.1678 46.3205C66.2388 46.3205 64.6358 45.6945 63.386 44.4426C62.109 43.1907 61.4842 41.6394 61.4842 39.7343C61.4842 39.054 61.5657 38.4008 61.783 37.7748ZM55.9688 46.9464C56.5665 47.9534 57.3001 48.8515 58.1152 49.668C59.4193 50.9471 60.9408 51.9541 62.6524 52.6889C64.3913 53.4237 66.2116 53.8047 68.1949 53.8047C70.1511 53.8047 71.9986 53.4237 73.7103 52.6889C75.4491 51.9541 76.9434 50.9471 78.2475 49.668C79.4702 48.4705 80.4482 47.0553 81.209 45.4768C81.2633 45.3679 81.3177 45.2591 81.3448 45.1774C82.1056 43.4629 82.4859 41.6394 82.4859 39.7071C82.4859 39.2173 82.4588 38.7546 82.4044 38.2919C82.2958 37.1489 82.0512 36.0603 81.6709 34.9716C81.5894 34.7267 81.4807 34.4545 81.372 34.2096C80.9645 33.2571 80.5026 32.3862 79.9864 31.5969C79.769 31.2703 79.5517 30.9437 79.3071 30.6444C79.0626 30.3178 78.7909 30.0184 78.5192 29.7191C77.3238 28.4671 75.9653 27.4602 74.471 26.7254C72.9495 25.9905 71.4009 25.6095 69.8251 25.6095C69.0915 25.6095 68.4938 25.6639 68.0319 25.7456C67.5701 25.8272 67.2169 25.9089 66.9995 25.9905L70.45 18.343C70.6673 17.717 70.776 17.1183 70.776 16.574C70.776 15.4037 70.3956 14.4784 69.5806 13.8524C68.7927 13.2265 67.8961 12.8999 66.918 12.8999C66.1844 12.8999 65.5324 13.0904 64.9075 13.4442C64.2826 13.798 63.7664 14.3967 63.3317 15.2404L56.1318 31.5697L55.3983 33.2298L55.0179 34.0735C54.882 34.3457 54.7462 34.6451 54.6375 34.9172C54.3658 35.5976 54.1756 36.2508 54.067 36.8767C53.9855 37.3122 53.9311 37.7476 53.904 38.2103C53.8496 38.7002 53.8496 39.19 53.8496 39.6799C53.8496 41.6122 54.23 43.4356 54.9635 45.1502C55.3167 45.8034 55.6156 46.4021 55.9688 46.9464Z" fill="#383838"/>
<path d="M92.2941 32.9564C92.3212 28.3842 93.0548 25.0095 94.4676 22.8323C95.9347 20.6278 97.7007 19.512 99.7927 19.512C100.825 19.512 101.776 19.7841 102.673 20.3284C103.569 20.8727 104.357 21.7164 105.009 22.8323C105.661 23.9481 106.205 25.3633 106.612 27.0234C107.02 28.7108 107.21 30.7248 107.21 33.0381C107.21 34.1267 107.156 35.1337 107.074 36.0862C106.965 37.2565 106.802 38.3451 106.558 39.3248C106.286 40.4951 105.906 41.5021 105.471 42.4002C105.335 42.6451 105.199 42.8901 105.064 43.135C103.624 45.3939 101.858 46.5097 99.7656 46.5097C97.6736 46.5097 95.8804 45.3939 94.4404 43.1622C93.8155 42.1825 93.3265 41.0122 92.9733 39.6514C92.7016 38.6445 92.5114 37.5286 92.4027 36.2767C92.3212 35.3242 92.2669 34.29 92.2669 33.1741V32.9564H92.2941ZM85.5018 38.6172C85.692 39.8692 85.9365 41.0666 86.2625 42.1825C86.6157 43.3527 87.0232 44.4686 87.4851 45.4755C88.0557 46.673 88.6806 47.7616 89.4141 48.7142C90.7454 50.456 92.3212 51.7895 94.1144 52.6604C95.9075 53.5585 97.8094 53.994 99.8471 53.994C101.83 53.994 103.732 53.5585 105.498 52.6604C107.264 51.7623 108.813 50.456 110.117 48.687C110.986 47.5167 111.72 46.1831 112.345 44.6591C112.671 43.8698 112.97 42.9989 113.241 42.1008C113.296 41.9375 113.35 41.747 113.377 41.5837C113.649 40.5768 113.866 39.4881 114.029 38.3723C114.274 36.7394 114.383 34.9704 114.383 33.0925C114.383 29.6361 114.002 26.588 113.241 23.9481C112.481 21.3082 111.421 19.131 110.117 17.362C108.786 15.6202 107.237 14.2866 105.417 13.4157C103.596 12.5448 101.667 12.0822 99.5754 12.0822C97.5649 12.0822 95.6902 12.5176 93.9242 13.3885C92.1582 14.2594 90.6096 15.5657 89.3055 17.3075C87.9742 19.0493 86.9689 21.2538 86.2082 23.9209C85.7735 25.4994 85.4474 27.214 85.2844 29.0918C85.2029 30.0716 85.1214 31.0785 85.1214 32.1127C85.1214 32.4665 85.0942 32.8476 85.0942 33.2014C85.0942 33.9362 85.1214 34.671 85.1486 35.3786C85.2301 36.4672 85.3388 37.5558 85.5018 38.6172Z" fill="#383838"/>
<path d="M121.039 5.85122C122.996 5.85122 124.599 7.45691 124.599 9.41639C124.599 11.3759 122.996 12.9816 121.039 12.9816C119.083 12.9816 117.48 11.3759 117.48 9.41639C117.48 7.45691 119.056 5.85122 121.039 5.85122ZM121.039 18.8328C126.229 18.8328 130.44 14.6145 130.44 9.41639C130.44 4.21833 126.229 0 121.039 0C115.85 0 111.639 4.21833 111.639 9.41639C111.612 14.6145 115.85 18.8328 121.039 18.8328Z" fill="#383838"/>
</svg>
