<svg width="1320" height="51" viewBox="0 0 1320 51" fill="none" xmlns="http://www.w3.org/2000/svg">
<path d="M402 23.6777L56.4994 23.6788C56.0851 23.6782 55.6821 23.5434 55.3509 23.2946C55.0196 23.0457 54.778 22.6963 54.6622 22.2986C54.5463 21.9009 54.5626 21.4765 54.7084 21.0888C54.8543 20.7011 55.1219 20.3711 55.4711 20.1483L66.2891 13.2659C69.3638 11.3105 72.9324 10.2718 76.5766 10.2716L401.988 10.2706M17.4096 23.6778H31.5703C35.2145 23.6776 38.7831 22.639 41.8577 20.6835L52.6757 13.8011C53.0249 13.5783 53.2926 13.2483 53.4384 12.8606C53.5842 12.4729 53.6005 12.0485 53.4846 11.6508C53.3688 11.2531 53.1272 10.9037 52.796 10.6548C52.4647 10.406 52.0617 10.2712 51.6474 10.2706H37.5285M434 40.8094H6.47038C5.5109 40.8093 4.5769 40.5006 3.80642 39.9291C3.03594 39.3575 2.46986 38.5533 2.19182 37.6353C1.91379 36.7174 1.93856 35.7344 2.26247 34.8316C2.58638 33.9288 3.19225 33.1541 3.99054 32.6221L41.1732 7.84852C46.8974 4.03438 53.6229 1.99938 60.5023 2L402.009 2M402 49H12.9979C12.6687 49 12.3486 48.8915 12.0873 48.6912C11.826 48.491 11.6381 48.2101 11.5526 47.8923C11.4672 47.5744 11.4891 47.2372 11.6149 46.9331C11.7407 46.6289 11.9633 46.3747 12.2483 46.2098L21.582 40.8067M402.001 34.85H21.9252C21.7404 34.8508 21.5603 34.7915 21.4123 34.6809C21.2642 34.5704 21.1562 34.4146 21.1045 34.2373C21.0528 34.0599 21.0603 33.8706 21.1258 33.6978C21.1914 33.5251 21.3113 33.3784 21.4677 33.2799L26.2768 30.2215C27.6433 29.3524 29.2294 28.891 30.849 28.8912H401.998" stroke="#B942FF" stroke-width="2.85409" stroke-miterlimit="10" stroke-linecap="round"/>
<path d="M97.0094 23.6777L411.501 23.6788C411.501 23.6788 422.5 23.6788 425 23.6788C427.5 23.6788 427 23.7284 427 17C427 10.2716 427.5 10.2716 425 10.2716C422.5 10.2716 97.0214 10.2706 97.0214 10.2706M97.0007 2C226.85 2 299.651 2 429.501 2C431.02 2 434 2.5 434 5.6008C434 13.5 434 33.5 434 43.5C434 48 431.852 49.1087 429.172 48.9999L97.0097 49M97.0091 34.85H433.927M433.5 28.8912C423 28.8912 424.12 28.891 422.501 28.8912H97.0121" stroke="#B942FF" stroke-width="2.85409" stroke-miterlimit="10" stroke-linecap="round"/>
<path d="M539.008 23.6777L853.5 23.6788C853.5 23.6788 864.499 23.6788 866.999 23.6788C869.499 23.6788 868.999 23.7284 868.999 17C868.999 10.2716 869.499 10.2716 866.999 10.2716C864.499 10.2716 539.02 10.2706 539.02 10.2706M539 2C668.849 2 741.65 2 871.5 2C873.019 2 875.999 2.00024 875.999 5.10104C875.999 13.0002 875.999 33.5 875.999 43.5C875.999 48 873.851 49.1087 871.171 48.9999L539.009 49M539.008 34.85H875.926M875.499 28.8912C864.999 28.8912 866.119 28.891 864.5 28.8912H539.011" stroke="#B942FF" stroke-width="2.85409" stroke-miterlimit="10" stroke-linecap="round"/>
<path d="M539 41L874 41" stroke="#B942FF" stroke-width="2.85409" stroke-miterlimit="10" stroke-linecap="round"/>
<path d="M775.991 23.6777L461.499 23.6788C461.499 23.6788 450.5 23.6788 448 23.6788C445.5 23.6788 446 23.7284 446 17C446 10.2716 445.5 10.2716 448 10.2716C450.5 10.2716 775.979 10.2706 775.979 10.2706M775.999 2C646.15 2 573.349 2 443.499 2C441.98 2 439 2.5 439 5.6008C439 13.5 439 33.5 439 43.5C439 48 441.148 49.1087 443.828 48.9999L775.99 49M775.991 34.85H439.073M439.5 28.8912C450 28.8912 448.88 28.891 450.499 28.8912H775.988" stroke="#B942FF" stroke-width="2.85409" stroke-miterlimit="10" stroke-linecap="round"/>
<path d="M775.999 41L440.999 41" stroke="#B942FF" stroke-width="2.85409" stroke-miterlimit="10" stroke-linecap="round"/>
<path d="M981.008 23.6777L1295.5 23.6788C1295.5 23.6788 1306.5 23.6788 1309 23.6788C1311.5 23.6788 1311 23.7284 1311 17C1311 10.2716 1311.5 10.2716 1309 10.2716C1306.5 10.2716 981.02 10.2706 981.02 10.2706M981 2C1110.85 2 1183.65 2 1313.5 2C1315.02 2 1318 2.00024 1318 5.10104C1318 13.0002 1318 33.5 1318 43.5C1318 48 1315.85 49.1087 1313.17 48.9999L981.009 49M981.008 34.85H1317.93M1317.5 28.8912C1307 28.8912 1308.12 28.891 1306.5 28.8912H981.011" stroke="#B942FF" stroke-width="2.85409" stroke-miterlimit="10" stroke-linecap="round"/>
<path d="M981 41L1316 41" stroke="#B942FF" stroke-width="2.85409" stroke-miterlimit="10" stroke-linecap="round"/>
<path d="M1217.99 23.6777L903.499 23.6788C903.499 23.6788 892.5 23.6788 890 23.6788C887.5 23.6788 888 23.7284 888 17C888 10.2716 887.5 10.2716 890 10.2716C892.5 10.2716 1217.98 10.2706 1217.98 10.2706M1218 2C1088.15 2 1015.35 2 885.499 2C883.98 2 881 2.5 881 5.6008C881 13.5 881 33.5 881 43.5C881 48 883.148 49.1087 885.828 48.9999L1217.99 49M1217.99 34.85H881.073M881.5 28.8912C892 28.8912 890.88 28.891 892.499 28.8912H1217.99" stroke="#B942FF" stroke-width="2.85409" stroke-miterlimit="10" stroke-linecap="round"/>
<path d="M1218 41L882.999 41" stroke="#B942FF" stroke-width="2.85409" stroke-miterlimit="10" stroke-linecap="round"/>
</svg>
